<svg width="1588" height="195" viewBox="0 0 1588 195" fill="none" xmlns="http://www.w3.org/2000/svg">
<path d="M85.5 26.125L25.25 192H0.625L70 10H85.875L85.5 26.125ZM136 192L75.625 26.125L75.25 10H91.125L160.75 192H136ZM132.875 124.625V144.375H30.625V124.625H132.875ZM206.75 0V192H183.5V0H206.75ZM269 0V192H245.75V0H269ZM376.875 10V192H353.125V10H376.875ZM435.375 10V29.75H294.75V10H435.375ZM482 0V192H458.875V0H482ZM476.5 119.25L466.875 118.875C466.958 109.625 468.333 101.083 471 93.25C473.667 85.3333 477.417 78.4583 482.25 72.625C487.083 66.7917 492.833 62.2917 499.5 59.125C506.25 55.875 513.708 54.25 521.875 54.25C528.542 54.25 534.542 55.1667 539.875 57C545.208 58.75 549.75 61.5833 553.5 65.5C557.333 69.4167 560.25 74.5 562.25 80.75C564.25 86.9167 565.25 94.4583 565.25 103.375V192H542V103.125C542 96.0417 540.958 90.375 538.875 86.125C536.792 81.7917 533.75 78.6667 529.75 76.75C525.75 74.75 520.833 73.75 515 73.75C509.25 73.75 504 74.9583 499.25 77.375C494.583 79.7917 490.542 83.125 487.125 87.375C483.792 91.625 481.167 96.5 479.25 102C477.417 107.417 476.5 113.167 476.5 119.25ZM656 194.5C646.583 194.5 638.042 192.917 630.375 189.75C622.792 186.5 616.25 181.958 610.75 176.125C605.333 170.292 601.167 163.375 598.25 155.375C595.333 147.375 593.875 138.625 593.875 129.125V123.875C593.875 112.875 595.5 103.083 598.75 94.5C602 85.8333 606.417 78.5 612 72.5C617.583 66.5 623.917 61.9583 631 58.875C638.083 55.7917 645.417 54.25 653 54.25C662.667 54.25 671 55.9167 678 59.25C685.083 62.5833 690.875 67.25 695.375 73.25C699.875 79.1667 703.208 86.1667 705.375 94.25C707.542 102.25 708.625 111 708.625 120.5V130.875H607.625V112H685.5V110.25C685.167 104.25 683.917 98.4167 681.75 92.75C679.667 87.0833 676.333 82.4167 671.75 78.75C667.167 75.0833 660.917 73.25 653 73.25C647.75 73.25 642.917 74.375 638.5 76.625C634.083 78.7917 630.292 82.0417 627.125 86.375C623.958 90.7083 621.5 96 619.75 102.25C618 108.5 617.125 115.708 617.125 123.875V129.125C617.125 135.542 618 141.583 619.75 147.25C621.583 152.833 624.208 157.75 627.625 162C631.125 166.25 635.333 169.583 640.25 172C645.25 174.417 650.917 175.625 657.25 175.625C665.417 175.625 672.333 173.958 678 170.625C683.667 167.292 688.625 162.833 692.875 157.25L706.875 168.375C703.958 172.792 700.25 177 695.75 181C691.25 185 685.708 188.25 679.125 190.75C672.625 193.25 664.917 194.5 656 194.5ZM765 10V192H740.875V10H765ZM828.5 85.625V192H805.375V56.75H827.25L828.5 85.625ZM823 119.25L813.375 118.875C813.458 109.625 814.833 101.083 817.5 93.25C820.167 85.3333 823.917 78.4583 828.75 72.625C833.583 66.7917 839.333 62.2917 846 59.125C852.75 55.875 860.208 54.25 868.375 54.25C875.042 54.25 881.042 55.1667 886.375 57C891.708 58.75 896.25 61.5833 900 65.5C903.833 69.4167 906.75 74.5 908.75 80.75C910.75 86.9167 911.75 94.4583 911.75 103.375V192H888.5V103.125C888.5 96.0417 887.458 90.375 885.375 86.125C883.292 81.7917 880.25 78.6667 876.25 76.75C872.25 74.75 867.333 73.75 861.5 73.75C855.75 73.75 850.5 74.9583 845.75 77.375C841.083 79.7917 837.042 83.125 833.625 87.375C830.292 91.625 827.667 96.5 825.75 102C823.917 107.417 823 113.167 823 119.25ZM1003.5 56.75V74.5H930.375V56.75H1003.5ZM955.125 23.875H978.25V158.5C978.25 163.083 978.958 166.542 980.375 168.875C981.792 171.208 983.625 172.75 985.875 173.5C988.125 174.25 990.542 174.625 993.125 174.625C995.042 174.625 997.042 174.458 999.125 174.125C1001.29 173.708 1002.92 173.375 1004 173.125L1004.12 192C1002.29 192.583 999.875 193.125 996.875 193.625C993.958 194.208 990.417 194.5 986.25 194.5C980.583 194.5 975.375 193.375 970.625 191.125C965.875 188.875 962.083 185.125 959.25 179.875C956.5 174.542 955.125 167.375 955.125 158.375V23.875ZM1086.75 194.5C1077.33 194.5 1068.79 192.917 1061.12 189.75C1053.54 186.5 1047 181.958 1041.5 176.125C1036.08 170.292 1031.92 163.375 1029 155.375C1026.08 147.375 1024.62 138.625 1024.62 129.125V123.875C1024.62 112.875 1026.25 103.083 1029.5 94.5C1032.75 85.8333 1037.17 78.5 1042.75 72.5C1048.33 66.5 1054.67 61.9583 1061.75 58.875C1068.83 55.7917 1076.17 54.25 1083.75 54.25C1093.42 54.25 1101.75 55.9167 1108.75 59.25C1115.83 62.5833 1121.62 67.25 1126.12 73.25C1130.62 79.1667 1133.96 86.1667 1136.12 94.25C1138.29 102.25 1139.38 111 1139.38 120.5V130.875H1038.38V112H1116.25V110.25C1115.92 104.25 1114.67 98.4167 1112.5 92.75C1110.42 87.0833 1107.08 82.4167 1102.5 78.75C1097.92 75.0833 1091.67 73.25 1083.75 73.25C1078.5 73.25 1073.67 74.375 1069.25 76.625C1064.83 78.7917 1061.04 82.0417 1057.88 86.375C1054.71 90.7083 1052.25 96 1050.5 102.25C1048.75 108.5 1047.88 115.708 1047.88 123.875V129.125C1047.88 135.542 1048.75 141.583 1050.5 147.25C1052.33 152.833 1054.96 157.75 1058.38 162C1061.88 166.25 1066.08 169.583 1071 172C1076 174.417 1081.67 175.625 1088 175.625C1096.17 175.625 1103.08 173.958 1108.75 170.625C1114.42 167.292 1119.38 162.833 1123.62 157.25L1137.62 168.375C1134.71 172.792 1131 177 1126.5 181C1122 185 1116.46 188.25 1109.88 190.75C1103.38 193.25 1095.67 194.5 1086.75 194.5ZM1189.5 78V192H1166.38V56.75H1188.88L1189.5 78ZM1231.75 56L1231.62 77.5C1229.71 77.0833 1227.88 76.8333 1226.12 76.75C1224.46 76.5833 1222.54 76.5 1220.38 76.5C1215.04 76.5 1210.33 77.3333 1206.25 79C1202.17 80.6667 1198.71 83 1195.88 86C1193.04 89 1190.79 92.5833 1189.12 96.75C1187.54 100.833 1186.5 105.333 1186 110.25L1179.5 114C1179.5 105.833 1180.29 98.1667 1181.88 91C1183.54 83.8333 1186.08 77.5 1189.5 72C1192.92 66.4167 1197.25 62.0833 1202.5 59C1207.83 55.8333 1214.17 54.25 1221.5 54.25C1223.17 54.25 1225.08 54.4583 1227.25 54.875C1229.42 55.2083 1230.92 55.5833 1231.75 56ZM1276.25 85.625V192H1253.12V56.75H1275L1276.25 85.625ZM1270.75 119.25L1261.12 118.875C1261.21 109.625 1262.58 101.083 1265.25 93.25C1267.92 85.3333 1271.67 78.4583 1276.5 72.625C1281.33 66.7917 1287.08 62.2917 1293.75 59.125C1300.5 55.875 1307.96 54.25 1316.12 54.25C1322.79 54.25 1328.79 55.1667 1334.12 57C1339.46 58.75 1344 61.5833 1347.75 65.5C1351.58 69.4167 1354.5 74.5 1356.5 80.75C1358.5 86.9167 1359.5 94.4583 1359.5 103.375V192H1336.25V103.125C1336.25 96.0417 1335.21 90.375 1333.12 86.125C1331.04 81.7917 1328 78.6667 1324 76.75C1320 74.75 1315.08 73.75 1309.25 73.75C1303.5 73.75 1298.25 74.9583 1293.5 77.375C1288.83 79.7917 1284.79 83.125 1281.38 87.375C1278.04 91.625 1275.42 96.5 1273.5 102C1271.67 107.417 1270.75 113.167 1270.75 119.25ZM1450.75 194.5C1441.33 194.5 1432.79 192.917 1425.12 189.75C1417.54 186.5 1411 181.958 1405.5 176.125C1400.08 170.292 1395.92 163.375 1393 155.375C1390.08 147.375 1388.62 138.625 1388.62 129.125V123.875C1388.62 112.875 1390.25 103.083 1393.5 94.5C1396.75 85.8333 1401.17 78.5 1406.75 72.5C1412.33 66.5 1418.67 61.9583 1425.75 58.875C1432.83 55.7917 1440.17 54.25 1447.75 54.25C1457.42 54.25 1465.75 55.9167 1472.75 59.25C1479.83 62.5833 1485.62 67.25 1490.12 73.25C1494.62 79.1667 1497.96 86.1667 1500.12 94.25C1502.29 102.25 1503.38 111 1503.38 120.5V130.875H1402.38V112H1480.25V110.25C1479.92 104.25 1478.67 98.4167 1476.5 92.75C1474.42 87.0833 1471.08 82.4167 1466.5 78.75C1461.92 75.0833 1455.67 73.25 1447.75 73.25C1442.5 73.25 1437.67 74.375 1433.25 76.625C1428.83 78.7917 1425.04 82.0417 1421.88 86.375C1418.71 90.7083 1416.25 96 1414.5 102.25C1412.75 108.5 1411.88 115.708 1411.88 123.875V129.125C1411.88 135.542 1412.75 141.583 1414.5 147.25C1416.33 152.833 1418.96 157.75 1422.38 162C1425.88 166.25 1430.08 169.583 1435 172C1440 174.417 1445.67 175.625 1452 175.625C1460.17 175.625 1467.08 173.958 1472.75 170.625C1478.42 167.292 1483.38 162.833 1487.62 157.25L1501.62 168.375C1498.71 172.792 1495 177 1490.5 181C1486 185 1480.46 188.25 1473.88 190.75C1467.38 193.25 1459.67 194.5 1450.75 194.5ZM1587 56.75V74.5H1513.88V56.75H1587ZM1538.62 23.875H1561.75V158.5C1561.75 163.083 1562.46 166.542 1563.88 168.875C1565.29 171.208 1567.12 172.75 1569.38 173.5C1571.62 174.25 1574.04 174.625 1576.62 174.625C1578.54 174.625 1580.54 174.458 1582.62 174.125C1584.79 173.708 1586.42 173.375 1587.5 173.125L1587.62 192C1585.79 192.583 1583.38 193.125 1580.38 193.625C1577.46 194.208 1573.92 194.5 1569.75 194.5C1564.08 194.5 1558.88 193.375 1554.12 191.125C1549.38 188.875 1545.58 185.125 1542.75 179.875C1540 174.542 1538.62 167.375 1538.62 158.375V23.875Z" fill="#3657BA"/>
</svg>
