<svg width="2501" height="2102" viewBox="0 0 2501 2102" fill="none" xmlns="http://www.w3.org/2000/svg">
<g clip-path="url(#clip0_456_378)">
<path d="M435.65 1483.8C426.251 1433.05 414.033 1383.24 407.454 1332.48C381.138 1134.18 423.432 950.906 540.913 787.372C633.018 658.613 758.958 569.327 903.695 507.297C1077.57 433.049 1264.6 392.635 1453.51 388.876C1621.74 384.177 1768.36 446.207 1896.18 551.47C2027.76 660.492 2129.26 794.891 2207.27 946.207C2244.86 1019.52 2279.63 1094.7 2315.35 1169.89C2319.11 1178.35 2321.93 1187.75 2323.81 1197.15C2274 1227.22 2226.06 1258.24 2175.31 1285.49C1987.34 1388.88 1784.33 1459.36 1572.87 1496.02C1457.27 1515.76 1340.72 1527.03 1224.18 1534.55C1113.28 1542.07 1002.38 1545.83 891.477 1543.01C740.161 1539.25 589.785 1515.76 435.65 1483.8ZM674.371 980.041C671.552 1145.45 805.95 1278.91 969.484 1280.79C1127.38 1282.67 1274.94 1161.43 1274.94 983.801C1274.94 799.59 1133.02 683.049 974.184 683.049C809.71 683.049 675.311 815.568 674.371 980.041ZM1829.45 1066.51C1918.73 1073.09 2018.36 998.838 2019.3 876.658C2020.24 775.154 1938.47 692.447 1836.97 691.508H1833.21C1729.82 689.628 1645.24 772.335 1643.36 874.778V877.598C1643.36 984.741 1723.24 1066.51 1829.45 1066.51Z" fill="#1E61C6"/>
<path d="M2329.45 1239.44C2342.6 1397.33 2303.13 1536.43 2224.18 1664.25C2117.04 1837.18 1957.27 1946.21 1769.3 2014.82C1577.57 2084.36 1373.62 2111.62 1170.61 2096.58C1049.37 2088.12 927.191 2070.27 818.168 2012.94C630.198 1913.31 513.657 1754.48 452.566 1552.41C449.747 1540.19 448.807 1527.03 447.867 1514.82C1110.46 1668.01 1739.22 1600.34 2329.45 1239.44Z" fill="#1E60C6"/>
<path d="M2298.43 665.192C2347.3 647.335 2347.3 646.395 2342.6 600.342C2339.78 574.026 2338.84 547.711 2352 522.335C2357.64 511.996 2356.7 498.838 2357.64 486.62C2359.52 449.026 2390.54 419.891 2428.13 419.891C2465.72 419.891 2497.68 449.966 2499.56 487.56C2499.56 525.154 2469.48 556.169 2431.89 558.049C2419.67 558.989 2407.45 558.049 2390.54 558.049C2388.66 576.846 2384.9 593.763 2386.78 609.741C2392.42 655.793 2384.9 694.327 2332.27 714.064L2439.41 903.914L2278.69 1003.54C2211.03 846.583 2107.64 716.883 1983.58 598.462L2079.45 481.921C2168.73 524.214 2235.46 591.883 2298.43 665.192ZM364.221 1246.96L208.206 1194.33C200.687 1100.34 220.424 1012.94 255.198 927.41L200.687 840.944C180.95 840.944 161.213 844.703 144.296 840.004C106.702 831.545 70.0479 820.267 35.2735 806.169C8.01783 794.891 -4.20022 757.297 3.31858 730.041C13.6569 697.147 44.672 676.47 78.5066 679.289C110.461 682.109 136.777 706.545 141.476 738.5C143.356 753.538 141.476 769.515 141.476 788.312H224.183C258.958 802.41 257.078 844.703 283.394 871.959C335.086 804.289 385.837 736.62 462.905 688.688L534.334 744.139C479.822 819.327 421.552 889.816 401.815 977.222C382.078 1065.57 376.439 1153.91 364.221 1246.96Z" fill="#2163C7"/>
<path d="M1003.32 453.726L971.363 374.778C1059.71 304.289 1160.27 275.154 1266.48 261.056C1268.36 232.861 1254.26 220.643 1232.64 209.365C1159.33 171.771 1147.12 83.4248 1205.39 29.8534C1240.16 -2.10151 1281.51 -6.80075 1322.87 9.17669C1360.46 22.3346 1386.78 57.109 1389.6 97.5226C1396.18 140.756 1375.5 183.049 1337.9 204.665C1327.57 210.305 1316.29 215.004 1305.95 219.703L1317.23 255.417C1412.15 253.538 1505.2 254.477 1597.3 291.132L1584.15 369.139C1389.6 370.079 1192.23 359.741 1003.32 453.726Z" fill="#2162C6"/>
</g>
<defs>
<clipPath id="clip0_456_378">
<rect width="2500" height="2101" fill="white" transform="translate(0.5 0.5)"/>
</clipPath>
</defs>
</svg>
